<svg width="160" height="160" viewBox="0 0 160 160" fill="none" xmlns="http://www.w3.org/2000/svg">
  <circle cx="80" cy="80" r="60" fill="#E5F3FF"/>
  <path d="M95 65C98.866 65 102 61.866 102 58C102 54.134 98.866 51 95 51C91.134 51 88 54.134 88 58C88 61.866 91.134 65 95 65Z" fill="#0078D4"/>
  <path d="M65 87C68.866 87 72 83.866 72 80C72 76.134 68.866 73 65 73C61.134 73 58 76.134 58 80C58 83.866 61.134 87 65 87Z" fill="#0078D4"/>
  <path d="M95 109C98.866 109 102 105.866 102 102C102 98.134 98.866 95 95 95C91.134 95 88 98.134 88 102C88 105.866 91.134 109 95 109Z" fill="#0078D4"/>
  <path d="M89.5 98.5L70.5 83.5M70.5 76.5L89.5 61.5" stroke="#0078D4" stroke-width="2"/>
</svg>
